<svg width="50" height="50" viewBox="0 0 50 50" fill="none" xmlns="http://www.w3.org/2000/svg">
<path d="M43.9584 18.4896L26.4583 36.0417C26.25 36.25 26.0243 36.3972 25.7813 36.4833C25.5382 36.5708 25.2778 36.6146 25 36.6146C24.7222 36.6146 24.4618 36.5708 24.2188 36.4833C23.9757 36.3972 23.75 36.25 23.5417 36.0417L5.98958 18.4896C5.50347 18.0035 5.26042 17.3958 5.26042 16.6667C5.26042 15.9375 5.52083 15.3125 6.04167 14.7917C6.5625 14.2708 7.17014 14.0104 7.86459 14.0104C8.55903 14.0104 9.16667 14.2708 9.6875 14.7917L25 30.1042L40.3125 14.7917C40.7986 14.3055 41.3972 14.0625 42.1084 14.0625C42.8209 14.0625 43.4375 14.3229 43.9584 14.8437C44.4792 15.3646 44.7396 15.9722 44.7396 16.6667C44.7396 17.3611 44.4792 17.9687 43.9584 18.4896Z" fill="black"/>
</svg>
