<svg width="24" height="21" viewBox="0 0 24 21" fill="none" xmlns="http://www.w3.org/2000/svg">
<path d="M22.1333 21L13.7333 13.65C13.0667 14.1167 12.3 14.4861 11.4333 14.7583C10.5667 15.0306 9.64444 15.1667 8.66667 15.1667C6.24444 15.1667 4.19467 14.4324 2.51733 12.964C0.84 11.4956 0.000888889 9.702 0 7.58333C0 5.46389 0.839111 3.67033 2.51733 2.20267C4.19556 0.735 6.24533 0.000777778 8.66667 0C11.0889 0 13.1387 0.734222 14.816 2.20267C16.4933 3.67111 17.3324 5.46467 17.3333 7.58333C17.3333 8.43889 17.1778 9.24583 16.8667 10.0042C16.5556 10.7625 16.1333 11.4333 15.6 12.0167L24 19.3667L22.1333 21ZM8.66667 12.8333C10.3333 12.8333 11.7502 12.3227 12.9173 11.3015C14.0844 10.2803 14.6676 9.04089 14.6667 7.58333C14.6667 6.125 14.0831 4.88522 12.916 3.864C11.7489 2.84278 10.3324 2.33256 8.66667 2.33333C7 2.33333 5.58311 2.84394 4.416 3.86517C3.24889 4.88639 2.66578 6.12578 2.66667 7.58333C2.66667 9.04167 3.25022 10.2814 4.41733 11.3027C5.58444 12.3239 7.00089 12.8341 8.66667 12.8333Z" fill="black"/>
</svg>
