<svg width="271" height="185" viewBox="0 0 271 185" fill="none" xmlns="http://www.w3.org/2000/svg">
<g clip-path="url(#clip0_231_124)">
<rect x="0.726074" width="269.543" height="185" rx="20" fill=""/>
<path d="M108.666 182.845H74.4067L75.5681 167.646H107.505L108.666 182.845Z" fill="#E6E6E6"/>
<path d="M100.312 181.092H60.2271V184.599H100.312V181.092Z" fill="#E6E6E6"/>
<path d="M157.154 69.7285H26.2102C25.2861 69.7285 24.3999 70.098 23.7465 70.7558C23.0931 71.4136 22.7261 72.3057 22.7261 73.236V153.616H160.638V73.236C160.638 72.7753 160.548 72.3192 160.373 71.8937C160.198 71.4681 159.941 71.0815 159.618 70.7558C159.294 70.4301 158.91 70.1717 158.488 69.9955C158.065 69.8192 157.612 69.7285 157.154 69.7285Z" fill="#3F3D56"/>
<path d="M22.7261 153.616V166.769C22.7261 167.23 22.8162 167.686 22.9913 168.112C23.1664 168.537 23.423 168.924 23.7465 169.25C24.0701 169.575 24.4542 169.834 24.8769 170.01C25.2996 170.186 25.7526 170.277 26.2102 170.277H157.154C158.078 170.277 158.965 169.907 159.618 169.25C160.271 168.592 160.638 167.7 160.638 166.769V153.616H22.7261Z" fill="#E6E6E6"/>
<path d="M153.961 77.0357H29.6943V147.186H153.961V77.0357Z" fill="white"/>
<path d="M91.8268 165.308C93.7509 165.308 95.3108 163.737 95.3108 161.8C95.3108 159.863 93.7509 158.293 91.8268 158.293C89.9026 158.293 88.3428 159.863 88.3428 161.8C88.3428 163.737 89.9026 165.308 91.8268 165.308Z" fill="#3F3D56"/>
<path d="M248.139 61.1491H247.249V36.6143C247.249 34.7495 246.885 32.903 246.176 31.1801C245.467 29.4573 244.428 27.8919 243.118 26.5733C241.808 25.2547 240.253 24.2087 238.542 23.4951C236.831 22.7815 234.996 22.4142 233.144 22.4142H181.511C179.658 22.4142 177.824 22.7815 176.113 23.4951C174.401 24.2087 172.846 25.2547 171.537 26.5733C170.227 27.8919 169.188 29.4573 168.479 31.1801C167.77 32.9029 167.405 34.7494 167.405 36.6142V171.214C167.405 173.079 167.77 174.925 168.479 176.648C169.188 178.371 170.227 179.936 171.537 181.255C172.846 182.574 174.401 183.62 176.113 184.333C177.824 185.047 179.658 185.414 181.511 185.414H233.144C234.996 185.414 236.831 185.047 238.542 184.333C240.253 183.62 241.808 182.574 243.118 181.255C244.428 179.937 245.467 178.371 246.176 176.648C246.885 174.925 247.249 173.079 247.249 171.214V78.6134H248.139V61.1491Z" fill="#3F3D56"/>
<path d="M244.247 36.7118V171.116C244.247 172.508 243.974 173.887 243.445 175.174C242.915 176.461 242.139 177.63 241.161 178.614C240.183 179.599 239.021 180.38 237.743 180.912C236.465 181.445 235.095 181.719 233.711 181.718H181.829C180.446 181.718 179.077 181.444 177.799 180.911C176.521 180.378 175.36 179.598 174.382 178.613C173.404 177.628 172.629 176.46 172.099 175.173C171.57 173.887 171.298 172.508 171.298 171.116V36.7118C171.298 35.3195 171.57 33.9408 172.099 32.6544C172.629 31.368 173.404 30.1992 174.382 29.2147C175.36 28.2301 176.521 27.4492 177.799 26.9164C179.077 26.3836 180.446 26.1095 181.829 26.1096H188.126C187.817 26.8746 187.699 27.7044 187.783 28.5259C187.867 29.3474 188.151 30.1355 188.609 30.8208C189.066 31.5062 189.684 32.0678 190.408 32.4564C191.132 32.8449 191.94 33.0483 192.76 33.0489H222.34C223.161 33.0497 223.969 32.8471 224.694 32.4589C225.418 32.0708 226.037 31.509 226.495 30.8233C226.953 30.1375 227.236 29.3488 227.32 28.5268C227.404 27.7047 227.285 26.8745 226.974 26.1096H233.711C235.095 26.1091 236.465 26.3829 237.743 26.9155C239.021 27.4481 240.183 28.229 241.161 29.2135C242.139 30.1981 242.915 31.3671 243.445 32.6536C243.974 33.9402 244.247 35.3192 244.247 36.7118Z" fill="white"/>
</g>
<defs>
<clipPath id="clip0_231_124">
<rect x="0.726074" width="269.543" height="185" rx="20" fill="white"/>
</clipPath>
</defs>
</svg>
